<svg xmlns="http://www.w3.org/2000/svg" xmlns:xlink="http://www.w3.org/1999/xlink" width="500" zoomAndPan="magnify" viewBox="0 0 375 374.999991" height="500" preserveAspectRatio="xMidYMid meet" version="1.0"><defs><clipPath id="e9620bc04b"><path d="M 28.453125 28.453125 L 346.546875 28.453125 L 346.546875 346.546875 L 28.453125 346.546875 Z M 28.453125 28.453125 " clip-rule="nonzero"/></clipPath><clipPath id="ca3b047020"><path d="M 187.5 28.453125 C 99.660156 28.453125 28.453125 99.660156 28.453125 187.5 C 28.453125 275.339844 99.660156 346.546875 187.5 346.546875 C 275.339844 346.546875 346.546875 275.339844 346.546875 187.5 C 346.546875 99.660156 275.339844 28.453125 187.5 28.453125 Z M 187.5 28.453125 " clip-rule="nonzero"/></clipPath><clipPath id="943e16195a"><path d="M 127.308594 127.308594 L 248 127.308594 L 248 248 L 127.308594 248 Z M 127.308594 127.308594 " clip-rule="nonzero"/></clipPath></defs><g clip-path="url(#e9620bc04b)"><g clip-path="url(#ca3b047020)"><path fill="#ff5500" d="M 28.453125 28.453125 L 346.546875 28.453125 L 346.546875 346.546875 L 28.453125 346.546875 Z M 28.453125 28.453125 " fill-opacity="1" fill-rule="nonzero"/></g></g><g clip-path="url(#943e16195a)"><path fill="#faf8f4" d="M 247.53125 127.308594 L 247.53125 247.414062 L 223.492188 247.414062 L 223.492188 168.34375 L 144.304688 247.53125 L 127.308594 230.53125 L 206.496094 151.347656 L 127.425781 151.347656 L 127.425781 127.308594 Z M 247.53125 127.308594 " fill-opacity="1" fill-rule="nonzero"/></g></svg>