<svg xmlns="http://www.w3.org/2000/svg" xmlns:xlink="http://www.w3.org/1999/xlink" width="500" zoomAndPan="magnify" viewBox="0 0 375 374.999991" height="500" preserveAspectRatio="xMidYMid meet" version="1.0"><defs><clipPath id="9e93d88dea"><path d="M 7.140625 7.140625 L 367.859375 7.140625 L 367.859375 367.859375 L 7.140625 367.859375 Z M 7.140625 7.140625 " clip-rule="nonzero"/></clipPath><clipPath id="7ab825218b"><path d="M 187.5 7.140625 C 87.890625 7.140625 7.140625 87.890625 7.140625 187.5 C 7.140625 287.109375 87.890625 367.859375 187.5 367.859375 C 287.109375 367.859375 367.859375 287.109375 367.859375 187.5 C 367.859375 87.890625 287.109375 7.140625 187.5 7.140625 Z M 187.5 7.140625 " clip-rule="nonzero"/></clipPath><clipPath id="1054e0d98b"><path d="M 102 88 L 283 88 L 283 279 L 102 279 Z M 102 88 " clip-rule="nonzero"/></clipPath><clipPath id="c9dcac6f72"><path d="M 187.46875 87.976562 L 282.507812 183.015625 L 187.46875 278.050781 L 92.433594 183.015625 Z M 187.46875 87.976562 " clip-rule="nonzero"/></clipPath><clipPath id="8428b483d9"><path d="M 187.46875 87.976562 L 282.507812 183.015625 L 187.46875 278.050781 L 92.433594 183.015625 Z M 187.46875 87.976562 " clip-rule="nonzero"/></clipPath></defs><g clip-path="url(#9e93d88dea)"><g clip-path="url(#7ab825218b)"><path fill="#faf8f4" d="M 7.140625 7.140625 L 367.859375 7.140625 L 367.859375 367.859375 L 7.140625 367.859375 Z M 7.140625 7.140625 " fill-opacity="1" fill-rule="nonzero"/></g></g><g clip-path="url(#1054e0d98b)"><g clip-path="url(#c9dcac6f72)"><g clip-path="url(#8428b483d9)"><path fill="#0d221b" d="M 286.957031 187.46875 L 187.566406 286.859375 L 167.675781 266.964844 L 233.105469 201.53125 L 102.046875 201.53125 L 102.046875 173.398438 L 233.105469 173.402344 L 167.675781 107.96875 L 187.566406 88.078125 Z M 286.957031 187.46875 " fill-opacity="1" fill-rule="nonzero"/></g></g></g></svg>